<svg id="sw-js-blob-svg" viewBox="0 0 100 100" xmlns="http://www.w3.org/2000/svg">                    
    <path d="M18.7,-33.2C24.7,-29,30.4,-24.9,34,-19.4C37.7,-13.9,39.4,-6.9,39,-0.2C38.6,6.5,36.1,13,32.4,18.3C28.6,23.7,23.6,27.9,18,32.6C12.4,37.2,6.2,42.3,-0.4,43C-7,43.7,-14,40,-20.6,35.9C-27.1,31.8,-33.3,27.3,-37.4,21.3C-41.4,15.2,-43.3,7.6,-43.8,-0.3C-44.3,-8.2,-43.4,-16.4,-38.9,-21.6C-34.4,-26.9,-26.3,-29.2,-19.2,-32.9C-12.2,-36.5,-6.1,-41.4,0.1,-41.7C6.4,-41.9,12.7,-37.5,18.7,-33.2Z" width="100%" height="100%" transform="translate(50 50)" stroke-width="0" style="transition: all 0.3s ease 0s;"></path>              
</svg>